USFL
nRows=317
nColumns=2
inDegrees=yes
endheader
time	tib_ant_r	
2.92723	 60.535908	
2.9605	 60.532098	
2.99376	 60.614420	
3.02702	 60.693270	
3.06029	 60.645620	
3.09355	 60.755546	
3.12682	 60.886215	
3.16008	 60.875493	
3.19334	 60.952975	
3.22661	 61.001804	
3.25987	 61.021307	
3.29314	 61.049651	
3.3264	 61.065294	
3.35966	 61.157597	
3.39293	 61.344991	
3.42619	 61.360685	
3.45946	 61.396249	
3.49272	 61.282060	
3.52598	 61.236111	
3.55925	 61.132931	
3.59251	 61.039116	
3.62578	 60.980896	
3.65904	 61.114061	
3.6923	 61.216043	
3.72557	 61.280283	
3.75883	 61.355732	
3.7921	 61.357861	
3.82536	 61.321182	
3.85862	 61.287050	
3.89189	 61.288041	
3.92515	 61.231303	
3.95842	 61.199947	
3.99168	 61.180261	
4.02494	 61.167161	
4.05821	 61.197351	
4.09147	 61.177335	
4.12474	 61.138033	
4.158	 61.126148	
4.19126	 61.067442	
4.22453	 61.072498	
4.25779	 61.072448	
4.29106	 61.020916	
4.32432	 61.013423	
4.35758	 60.967046	
4.39085	 61.114165	
4.42411	 61.166286	
4.45738	 61.041089	
4.49064	 60.929138	
4.5239	 60.922049	
4.55717	 60.876832	
4.59043	 60.863307	
4.6237	 60.885317	
4.65696	 60.885643	
4.69022	 60.912349	
4.72349	 60.868582	
4.75675	 60.988098	
4.79002	 61.130331	
4.82328	 61.098406	
4.85654	 60.951060	
4.88981	 60.960919	
4.92307	 60.947503	
4.95634	 60.943854	
4.9896	 60.946741	
5.02286	 60.993640	
5.05613	 61.044927	
5.08939	 61.055833	
5.12266	 61.158484	
5.15592	 61.312367	
5.18918	 61.385629	
5.22245	 61.358745	
5.25571	 61.309884	
5.28898	 61.233361	
5.32224	 61.009284	
5.3555	 60.856350	
5.38877	 61.140637	
5.42203	 61.283509	
5.4553	 61.159907	
5.48856	 61.156694	
5.52182	 60.633008	
5.55509	 60.611601	
5.58835	 60.205773	
5.62162	 60.157126	
5.65488	 39.471721	
5.68814	 39.147178	
5.72141	 38.907696	
5.75467	 38.805994	
5.78794	 38.538802	
5.8212	 38.504188	
5.85446	 38.581987	
5.88773	 38.434268	
5.92099	 38.321967	
5.95426	 38.149575	
5.98752	 37.993900	
6.02078	 37.824387	
6.05405	 37.764384	
6.08731	 37.777992	
6.12058	 37.732735	
6.15384	 37.662669	
6.1871	 37.587926	
6.22037	 37.526150	
6.25363	 37.518740	
6.2869	 37.575577	
6.32016	 37.648553	
6.35342	 37.825031	
6.38669	 37.963905	
6.41995	 38.266485	
6.45322	 38.328151	
6.48648	 38.488254	
6.51974	 38.718012	
6.55301	 38.855789	
6.58627	 38.943825	
6.61954	 38.919870	
6.6528	 38.820481	
6.68606	 38.796910	
6.71933	 38.826874	
6.75259	 38.802163	
6.78586	 38.865710	
6.81912	 38.847165	
6.85238	 38.821531	
6.88565	 38.719792	
6.91891	 38.789753	
6.95218	 38.615994	
6.98544	 38.438142	
7.0187	 38.186914	
7.05197	 38.040475	
7.08523	 38.037343	
7.1185	 38.011292	
7.15176	 37.959177	
7.18502	 37.902264	
7.21829	 37.936672	
7.25155	 37.957537	
7.28482	 37.916121	
7.31808	 37.921060	
7.35134	 37.895155	
7.38461	 37.882395	
7.41787	 37.930736	
7.45114	 37.917234	
7.4844	 37.999566	
7.51766	 37.991877	
7.55093	 38.001852	
7.58419	 37.825938	
7.61746	 37.736017	
7.65072	 37.702283	
7.68398	 37.615636	
7.71725	 37.583043	
7.75051	 37.514695	
7.78378	 37.443382	
7.81704	 37.398119	
7.8503	 37.356358	
7.88357	 37.296254	
7.91683	 37.233348	
7.9501	 37.207234	
7.98336	 37.107033	
8.01662	 36.975551	
8.04989	 36.836549	
8.08315	 36.753583	
8.11642	 36.648201	
8.14968	 36.585357	
8.18294	 36.564135	
8.21621	 36.576002	
8.24947	 36.618038	
8.28274	 36.653914	
8.316	 36.602620	
8.34926	 36.721392	
8.38253	 36.724780	
8.41579	 36.762614	
8.44906	 36.855410	
8.48232	 36.809129	
8.51558	 37.011329	
8.54885	 37.003999	
8.58211	 37.118886	
8.61538	 37.186022	
8.64864	 37.209437	
8.6819	 37.194544	
8.71517	 37.193720	
8.74843	 37.212159	
8.7817	 37.283519	
8.81496	 37.310130	
8.84822	 37.336967	
8.88149	 37.290092	
8.91475	 37.268707	
8.94802	 37.372293	
8.98128	 37.440757	
9.01454	 37.496652	
9.04781	 37.570746	
9.08107	 37.589991	
9.11434	 37.523911	
9.1476	 37.672562	
9.18086	 37.666020	
9.21413	 37.685479	
9.24739	 37.617555	
9.28066	 37.605989	
9.31392	 37.677191	
9.34718	 37.676440	
9.38045	 37.735031	
9.41371	 37.681730	
9.44698	 37.714357	
9.48024	 37.782135	
9.5135	 37.810759	
9.54677	 37.702097	
9.58003	 37.596887	
9.6133	 37.565105	
9.64656	 37.385479	
9.67982	 37.419174	
9.71309	 37.344510	
9.74635	 37.163629	
9.77962	 37.292483	
9.81288	 37.352672	
9.84614	 37.424275	
9.87941	 37.332780	
9.91267	 37.342477	
9.94594	 37.280573	
9.9792	 37.269535	
10.0125	 37.308212	
10.0457	 37.482120	
10.079	 37.609381	
10.1123	 37.615468	
10.1455	 37.612503	
10.1788	 37.633910	
10.212	 37.648717	
10.2453	 37.659209	
10.2786	 37.689094	
10.3118	 37.699223	
10.3451	 37.657257	
10.3784	 37.704546	
10.4116	 37.575881	
10.4449	 37.716181	
10.4782	 37.737250	
10.5114	 38.050597	
10.5447	 38.260216	
10.578	 38.273056	
10.6112	 38.588982	
10.6445	 38.852303	
10.6777	 38.876370	
10.711	 39.071503	
10.7443	 39.062460	
10.7775	 39.180512	
10.8108	 39.165363	
10.8441	 39.191399	
10.8773	 39.247548	
10.9106	 39.316656	
10.9439	 39.365307	
10.9771	 39.220951	
11.0104	 39.197088	
11.0436	 39.147138	
11.0769	 39.138648	
11.1102	 39.111176	
11.1434	 39.067882	
11.1767	 39.014640	
11.21	 39.035906	
11.2432	 39.001634	
11.2765	 38.992591	
11.3098	 38.992593	
11.343	 39.014460	
11.3763	 39.088855	
11.4096	 39.096185	
11.4428	 39.110147	
11.4761	 39.046460	
11.5093	 39.039431	
11.5426	 39.148375	
11.5759	 39.154287	
11.6091	 39.189703	
11.6424	 39.317230	
11.6757	 39.332277	
11.7089	 39.443560	
11.7422	 39.726440	
11.7755	 39.814706	
11.8087	 40.001099	
11.842	 40.351346	
11.8752	 40.662575	
11.9085	 40.788144	
11.9418	 40.761525	
11.975	 40.976310	
12.0083	 41.273883	
12.0416	 41.363610	
12.0748	 41.597948	
12.1081	 41.730869	
12.1414	 41.886484	
12.1746	 41.782118	
12.2079	 41.917913	
12.2412	 42.054460	
12.2744	 42.148080	
12.3077	 42.228931	
12.3409	 42.233287	
12.3742	 42.333263	
12.4075	 42.381347	
12.4407	 42.393200	
12.474	 42.363008	
12.5073	 42.412383	
12.5405	 42.221879	
12.5738	 42.121912	
12.6071	 42.031886	
12.6403	 42.073861	
12.6736	 42.177804	
12.7068	 42.138508	
12.7401	 42.313311	
12.7734	 42.394855	
12.8066	 42.390565	
12.8399	 42.449484	
12.8732	 42.437825	
12.9064	 42.477622	
12.9397	 42.695814	
12.973	 42.777820	
13.0062	 42.905038	
13.0395	 43.032217	
13.0728	 43.030020	
13.106	 43.154456	
13.1393	 43.207949	
13.1725	 43.197842	
13.2058	 43.298675	
13.2391	 43.338334	
13.2723	 43.295247	
13.3056	 43.448117	
13.3389	 43.313921	
13.3721	 43.436410	
13.4054	 43.476179	
13.4387	 43.466452	
